<?xml version="1.0" encoding="UTF-8" standalone="no"?>
<!-- Created with Inkscape (http://www.inkscape.org/) -->

<svg
   xmlns:dc="http://purl.org/dc/elements/1.1/"
   xmlns:cc="http://creativecommons.org/ns#"
   xmlns:rdf="http://www.w3.org/1999/02/22-rdf-syntax-ns#"
   xmlns:svg="http://www.w3.org/2000/svg"
   xmlns="http://www.w3.org/2000/svg"
   xmlns:sodipodi="http://sodipodi.sourceforge.net/DTD/sodipodi-0.dtd"
   xmlns:inkscape="http://www.inkscape.org/namespaces/inkscape"
   width="500"
   height="500"
   viewBox="0 0 132.29166 132.29167"
   version="1.1"
   id="svg8"
   inkscape:version="0.92.4 5da689c313, 2019-01-14"
   sodipodi:docname="logoProto.svg">
  <defs
     id="defs2" />
  <sodipodi:namedview
     id="base"
     pagecolor="#ffffff"
     bordercolor="#666666"
     borderopacity="1.0"
     inkscape:pageopacity="0.0"
     inkscape:pageshadow="2"
     inkscape:zoom="0.5"
     inkscape:cx="244.31714"
     inkscape:cy="189.54791"
     inkscape:document-units="mm"
     inkscape:current-layer="layer1"
     showgrid="false"
     units="px"
     inkscape:window-width="1366"
     inkscape:window-height="695"
     inkscape:window-x="0"
     inkscape:window-y="0"
     inkscape:window-maximized="1" />
  <metadata
     id="metadata5">
    <rdf:RDF>
      <cc:Work
         rdf:about="">
        <dc:format>image/svg+xml</dc:format>
        <dc:type
           rdf:resource="http://purl.org/dc/dcmitype/StillImage" />
        <dc:title></dc:title>
      </cc:Work>
    </rdf:RDF>
  </metadata>
  <g
     inkscape:label="Layer 1"
     inkscape:groupmode="layer"
     id="layer1"
     transform="translate(0,-164.70832)">
    <rect
       style="fill:#00c443;fill-opacity:1;stroke:#000000;stroke-width:0.99249762;stroke-miterlimit:4;stroke-dasharray:none;stroke-opacity:1"
       id="rect4737"
       width="131.29916"
       height="131.29916"
       x="0.49624881"
       y="165.20457"
       ry="21.795662" />
    <path
       style="fill:#008080;stroke:none;stroke-width:0.25617099"
       d="m 80.448339,182.03522 c 3.096517,0.12783 6.472772,-0.009 9.621449,5e-5 -0.01929,28.96299 0.277947,61.41654 0.534543,87.40986 10.447459,0.13214 19.977479,0.0265 31.230969,0.003 -0.0177,2.55901 -0.0651,5.34245 0.0396,7.85426 -13.72697,0.10256 -29.271563,-0.0269 -41.426772,0.24553 0.163549,-31.8991 0.0318,-63.61312 2.11e-4,-95.51246 z"
       id="path4576"
       inkscape:connector-curvature="0"
       sodipodi:nodetypes="ccccccc" />
    <path
       style="fill:#008080;stroke:none;stroke-width:0.25617099"
       d="m 64.951137,255.88543 c 0.0051,-23.59973 -1.068189,-21.21 1.383922,-26.60411 0.43375,-0.81155 1.191943,-1.85552 1.61413,-2.2271 2.870018,-1.54322 5.116203,-2.17222 9.291704,-0.99879 0,0 -3.877164,-2.69781 -5.438865,-3.09668 -5.987182,-1.75562 -11.392297,1.51945 -13.390412,5.87325 -1.970198,4.29296 -1.306044,3.86116 -1.538393,27.31422 l -0.212082,21.40753 4.476763,6e-5 3.808593,-6e-5 z"
       id="path4572-7"
       inkscape:connector-curvature="0"
       sodipodi:nodetypes="sccccsscccs" />
    <path
       style="fill:#008080;stroke:none;stroke-width:0.25617099"
       d="m 48.371143,255.88543 c -0.0051,-23.59973 1.068189,-21.21 -1.383922,-26.60411 -0.43375,-0.81155 -1.191942,-1.85552 -1.61413,-2.22711 -2.870017,-1.54321 -5.116203,-2.17222 -9.291704,-0.99878 0,0 3.877165,-2.69781 5.438865,-3.09669 5.987182,-1.75561 11.392297,1.51946 13.390412,5.87325 1.970198,4.29297 1.306044,3.86116 1.538393,27.31423 l 0.212082,21.40753 -4.476763,6e-5 -3.808592,-6e-5 z"
       id="path4572"
       inkscape:connector-curvature="0"
       sodipodi:nodetypes="sccccsscccs" />
    <path
       style="fill:#008080;stroke:none;stroke-width:0.25617099"
       d="m 26.815637,255.11036 c -0.09574,-19.46628 0.728125,-19.44511 -0.51775,-23.41146 -1.256585,-3.2686 -2.696113,-4.93118 -5.130714,-5.64296 -0.799993,-0.23387 -4.404243,-0.86761 -6.921811,-0.53591 l -1.963918,0.25874 2.719044,-1.53426 c 2.774832,-1.56573 4.910377,-1.8006 7.264806,-1.79273 2.585227,0.008 4.9341,0.67679 7.437907,1.80212 3.239093,1.45579 5.604407,3.46219 6.629432,6.6894 l 0.520697,1.63938 c 0.79375,2.40028 0.164897,22.35934 0.164897,22.35934 l 0.227748,22.59793 c -3.355158,-0.0575 -6.967392,-0.0965 -10.320028,0 z"
       id="path4570"
       inkscape:connector-curvature="0"
       sodipodi:nodetypes="scsscscssccccs" />
    <path
       style="fill:none;stroke:#000000;stroke-width:0.24322984px;stroke-linecap:butt;stroke-linejoin:miter;stroke-opacity:1"
       d="m 36.081387,226.05543 c 0,0 4.276312,-3.61392 8.552624,-3.61392 9.440999,0.79578 12.062281,7.74253 11.75986,14.00393 0,0 0.02635,31.99396 0.267269,41.10831 h -8.285357 l 0.216796,-40.85172 c 0.02665,-5.02231 -1.825576,-8.76706 -3.691299,-9.969 -4.009043,-2.25869 -8.819893,-0.6776 -8.819893,-0.6776 z"
       id="path3717"
       inkscape:connector-curvature="0"
       sodipodi:nodetypes="cccccscc" />
    <path
       style="fill:none;stroke:#000000;stroke-width:0.25359634px;stroke-linecap:butt;stroke-linejoin:miter;stroke-opacity:1"
       d="m 80.44834,182.03522 -2.13e-4,95.51246 41.426773,-0.24553 -0.0396,-7.85426 -31.23097,-0.003 -0.534541,-87.40986 z"
       id="path3719"
       inkscape:connector-curvature="0"
       sodipodi:nodetypes="ccccccc" />
    <path
       style="fill:none;stroke:#000000;stroke-width:0.24322984px;stroke-linecap:butt;stroke-linejoin:miter;stroke-opacity:1"
       d="m 77.240893,226.05543 c 0,0 -4.276312,-3.61392 -8.552624,-3.61392 -9.440998,0.79578 -12.062281,7.74253 -11.759859,14.00393 0,0 -0.02635,31.99396 -0.26727,41.10831 h 8.285358 l -0.216797,-40.85172 c -0.02665,-5.02231 1.825577,-8.76706 3.691299,-9.969 4.009043,-2.25869 8.819893,-0.6776 8.819893,-0.6776 z"
       id="path3717-3"
       inkscape:connector-curvature="0"
       sodipodi:nodetypes="cccccscc" />
    <path
       style="fill:none;stroke:#000000;stroke-width:0.2713981px;stroke-linecap:butt;stroke-linejoin:miter;stroke-opacity:1"
       d="m 11.612364,226.06413 c 0,0 5.326466,-3.61235 10.65293,-3.61235 11.759463,0.79544 15.357735,7.73915 14.981046,13.99782 0,0 -0.300449,31.97998 -3.65e-4,41.09035 H 26.925947 l 3.93e-4,-40.83388 c 4.8e-5,-5.0202 -2.004248,-8.76324 -4.328144,-9.96463 -4.99356,-2.25772 -10.985832,-0.67731 -10.985832,-0.67731 z"
       id="path3717-6"
       inkscape:connector-curvature="0"
       sodipodi:nodetypes="cccccscc" />
  </g>
</svg>
